<?xml version="1.0" encoding="UTF-8"?>
<svg version="1.1" xmlns="http://www.w3.org/2000/svg" width="1024" height="1024">
<path d="M0 0 C337.92 0 675.84 0 1024 0 C1024 337.92 1024 675.84 1024 1024 C686.08 1024 348.16 1024 0 1024 C0 686.08 0 348.16 0 0 Z " fill="#F8F8F8" transform="translate(0,0)"/>
<path d="M0 0 C1.64906848 0.81911887 3.27205891 1.69158649 4.875 2.59765625 C5.84550293 3.14349365 6.81600586 3.68933105 7.81591797 4.25170898 C9.39203857 5.14805054 9.39203857 5.14805054 11 6.0625 C12.10359863 6.68519775 13.20719727 7.30789551 14.34423828 7.94946289 C23.124019 12.9115991 31.87421495 17.92567559 40.6242981 22.93994141 C49.52868175 28.04134507 58.46590636 33.08023632 67.4375 38.0625 C68.50790527 38.65732178 69.57831055 39.25214355 70.68115234 39.86499023 C78.08940141 43.96931058 85.53533688 47.99947468 93 52 C92.67 52.99 92.34 53.98 92 55 C90.15258789 55.72021484 90.15258789 55.72021484 87.72265625 56.2109375 C86.82490479 56.40147705 85.92715332 56.5920166 85.00219727 56.78833008 C84.03209717 56.98193115 83.06199707 57.17553223 82.0625 57.375 C73.89844189 59.09813114 65.87893937 61.02717169 57.90063477 63.47607422 C52.35223749 65.11373887 47.51090526 66.01595534 42.02832031 63.79760742 C41.05475586 63.23920166 40.08119141 62.6807959 39.078125 62.10546875 C37.97879639 61.48406006 36.87946777 60.86265137 35.74682617 60.22241211 C35.17564056 59.88998505 34.60445496 59.55755798 34.01596069 59.21505737 C32.23115147 58.17653263 30.43622323 57.15781027 28.63793945 56.14282227 C23.11040613 53.01033535 17.63545718 49.79925551 12.21484375 46.484375 C11.35665039 45.96593018 10.49845703 45.44748535 9.61425781 44.91333008 C8.03539634 43.95314722 6.46749341 42.97462758 4.91308594 41.9753418 C3.86362793 41.33592651 3.86362793 41.33592651 2.79296875 40.68359375 C2.2002417 40.30775146 1.60751465 39.93190918 0.99682617 39.54467773 C-3.7561642 38.24819631 -8.62011493 41.74284698 -12.6484375 44.01953125 C-13.72383789 44.62297363 -14.79923828 45.22641602 -15.90722656 45.84814453 C-17.0515918 46.49638184 -18.19595703 47.14461914 -19.375 47.8125 C-21.81368446 49.18352519 -24.2544954 50.55074474 -26.6953125 51.91796875 C-27.61830139 52.43586975 -27.61830139 52.43586975 -28.55993652 52.9642334 C-34.42209996 56.24882309 -40.33149007 59.44320043 -46.25 62.625 C-55.10862555 67.39778365 -63.88938164 72.29433745 -72.63769531 77.26611328 C-79.52886982 81.17978031 -86.45857909 85.01642481 -93.41162109 88.81884766 C-101.08885314 93.02696024 -108.70592131 97.33949439 -116.3125 101.67382812 C-129.20365745 109 -129.20365745 109 -132 109 C-132 123.85 -132 138.7 -132 154 C-119.79 154 -107.58 154 -95 154 C-95 152.35 -95 150.7 -95 149 C-90.05 149 -85.1 149 -80 149 C-80 150.98 -80 152.96 -80 155 C-73.96715637 154.95582845 -67.93535744 154.88597432 -61.90307617 154.79248047 C-59.85172854 154.76428436 -57.80027253 154.74306307 -55.7487793 154.72900391 C-52.79679946 154.70755576 -49.8461207 154.66089552 -46.89453125 154.609375 C-45.52238213 154.60753204 -45.52238213 154.60753204 -44.12251282 154.60565186 C-38.71002647 154.48162515 -36.03937055 153.90183779 -32 150 C-26.69963535 148.89377793 -21.25168969 148.6873871 -16.48046875 151.46875 C-14.48739412 153.21407695 -12.73670633 155.00235997 -11 157 C-10.44699219 157.433125 -9.89398438 157.86625 -9.32421875 158.3125 C-6.63063405 161.74503271 -7.42987613 166.29948507 -7.51171875 170.46484375 C-8.20795076 175.50556353 -10.14963907 178.71482967 -14 182 C-17.69236903 184.5660271 -21.66458826 184.33213502 -26 184.3125 C-27.06734375 184.33666992 -27.06734375 184.33666992 -28.15625 184.36132812 C-33.5247693 184.36633607 -33.5247693 184.36633607 -35.94873047 182.49780273 C-38.39298482 180.71304905 -39.58101041 180.63633913 -42.5703125 180.671875 C-43.91802734 180.67960937 -43.91802734 180.67960937 -45.29296875 180.6875 C-46.69482422 180.7184375 -46.69482422 180.7184375 -48.125 180.75 C-49.00542969 180.75515625 -49.88585937 180.7603125 -50.79296875 180.765625 C-55.81486961 180.82213021 -60.80928478 181.0436548 -65.82055664 181.37287903 C-79.24988854 182.23456166 -92.67342742 182.10862014 -106.125 182.0625 C-114.66375 182.041875 -123.2025 182.02125 -132 182 C-132 201.14 -132 220.28 -132 240 C-129.03 240.99 -129.03 240.99 -126 242 C-123.54273856 243.28978428 -121.1465298 244.60729627 -118.75 246 C-117.3167212 246.81956146 -115.88311566 247.63855171 -114.44921875 248.45703125 C-113.7123584 248.87936035 -112.97549805 249.30168945 -112.21630859 249.73681641 C-108.68206494 251.7511562 -105.12195304 253.71816678 -101.5625 255.6875 C-98.37437396 257.45720677 -95.18721653 259.22865584 -92 261 C-91.05979004 261.52223145 -90.11958008 262.04446289 -89.15087891 262.58251953 C-76.70182765 269.50360162 -64.32277678 276.52447423 -52.04077148 283.73803711 C-43.68144472 288.635067 -35.24079263 293.37747008 -26.7644043 298.06860352 C-22.21687417 300.59468759 -17.70578649 303.13916479 -13.3046875 305.9140625 C-12.61769775 306.34549561 -11.93070801 306.77692871 -11.22290039 307.22143555 C-9.46775208 308.33867436 -7.72723866 309.47881738 -5.98828125 310.62109375 C-2.31744321 312.31495758 -0.88446086 311.92781994 3 311 C5.86247215 309.81283844 5.86247215 309.81283844 8.71875 308.26171875 C10.34731934 307.4116626 10.34731934 307.4116626 12.00878906 306.54443359 C13.73693848 305.62525146 13.73693848 305.62525146 15.5 304.6875 C16.71292779 304.04974425 17.92614793 303.41254423 19.13964844 302.77587891 C27.45062326 298.40350802 35.70481123 293.92699921 43.93188477 289.39892578 C50.38417466 285.85407308 56.89585865 282.43915191 63.4375 279.0625 C72.3616653 274.45212374 81.11029647 269.58172797 89.82958984 264.59643555 C97.74680966 260.09062822 105.80256976 255.96681368 114 252 C115.07121094 251.41476562 116.14242188 250.82953125 117.24609375 250.2265625 C120 249 120 249 123 250 C124.41040039 252.17724609 124.41040039 252.17724609 125.84765625 255.0234375 C126.37037109 256.044375 126.89308594 257.0653125 127.43164062 258.1171875 C127.96982422 259.19226563 128.50800781 260.26734375 129.0625 261.375 C130.13540756 263.48764557 131.20957149 265.59965369 132.28515625 267.7109375 C132.75832275 268.65243652 133.23148926 269.59393555 133.71899414 270.56396484 C135.02523592 273.15019268 135.02523592 273.15019268 137 276 C137 276.99 137 277.98 137 279 C135.83726562 279.60585938 134.67453125 280.21171875 133.4765625 280.8359375 C122.21857314 286.72020192 111.07586441 292.78070473 100 299 C95.91707188 301.29238967 91.83381298 303.58418697 87.75 305.875 C86.69385498 306.46772705 85.63770996 307.0604541 84.54956055 307.67114258 C76.53990299 312.15813869 68.4881597 316.56338943 60.41748047 320.93945312 C55.6883526 323.51025691 51.00537771 326.13040517 46.375 328.875 C41.77332736 331.60191712 37.06290026 333.9863234 32.26171875 336.33984375 C28.46731836 338.27112539 24.76564238 340.33801141 21.0625 342.4375 C20.38759521 342.8180957 19.71269043 343.19869141 19.01733398 343.59082031 C15.75585942 345.43169103 12.50433301 347.28734517 9.265625 349.16796875 C8.12609375 349.81378906 6.9865625 350.45960938 5.8125 351.125 C4.80832031 351.70507812 3.80414062 352.28515625 2.76953125 352.8828125 C-0.53517548 354.21588179 -1.67331 354.20649304 -5 353 C-7.39582223 351.70519902 -9.68851632 350.36864784 -12 348.9375 C-19.93079386 344.14965037 -28.00326714 339.64072768 -36.125 335.1875 C-38.65408641 333.79897798 -41.18269752 332.40959384 -43.7109375 331.01953125 C-44.64323181 330.50695518 -44.64323181 330.50695518 -45.59436035 329.98402405 C-52.27387918 326.3066492 -58.9096213 322.55309516 -65.54199219 318.79150391 C-72.47428064 314.86013795 -79.42035032 310.95417078 -86.375 307.0625 C-87.41358154 306.48097168 -88.45216309 305.89944336 -89.5222168 305.30029297 C-94.77587428 302.35967645 -100.03237144 299.42427771 -105.29296875 296.49609375 C-116.69642124 290.14103085 -128.02647268 283.68178443 -139.28173828 277.06762695 C-146.78868282 272.6697012 -154.37371274 268.43195888 -162.02270508 264.28637695 C-162.79767334 263.86573975 -163.5726416 263.44510254 -164.37109375 263.01171875 C-165.05099365 262.64522217 -165.73089355 262.27872559 -166.43139648 261.90112305 C-168 261 -168 261 -169 260 C-169.09698498 257.81040962 -169.12186727 255.6176247 -169.12025452 253.42588806 C-169.12110894 252.73082974 -169.12196337 252.03577141 -169.12284368 251.31965071 C-169.12450049 248.97341014 -169.11897387 246.62723992 -169.11352539 244.28100586 C-169.11324354 242.60600282 -169.11340122 240.93099967 -169.1139679 239.2559967 C-169.11425594 234.69420721 -169.10835814 230.13244377 -169.10139394 225.57066035 C-169.09516151 220.80871 -169.09455669 216.0467591 -169.09336853 211.2848053 C-169.09025489 202.26084434 -169.08204106 193.23689544 -169.07201904 184.2129398 C-169.06085893 173.94225513 -169.05534771 163.67156991 -169.05032361 153.40088069 C-169.03985847 132.26724706 -169.02225839 111.13362429 -169 90 C-165.48912041 88.08275801 -161.97786851 86.16619886 -158.46655273 84.24975586 C-157.47980309 83.710895 -156.49305344 83.17203415 -155.47640228 82.61684418 C-148.02900063 78.55275072 -140.55401694 74.54467715 -133.0625 70.5625 C-123.49050631 65.46115129 -114.00712116 60.22247204 -104.58666992 54.84619141 C-97.40907427 50.76237622 -90.15758049 46.830566 -82.875 42.9375 C-74.18860888 38.29056441 -65.58346008 33.53354401 -57.04907227 28.61352539 C-48.69890815 23.80532523 -40.28186809 19.11984755 -31.84765625 14.46118164 C-26.68304872 11.60809257 -21.52937466 8.74340054 -16.421875 5.7890625 C-15.59131592 5.31291504 -14.76075684 4.83676758 -13.9050293 4.34619141 C-12.39026473 3.47569512 -10.88086856 2.59575987 -9.37817383 1.70458984 C-3.9096485 -1.41932779 -3.9096485 -1.41932779 0 0 Z " fill="#1275B0" transform="translate(514,236)"/>
<path d="M0 0 C1.45563354 0.79120239 1.45563354 0.79120239 2.94067383 1.59838867 C4.4821106 2.45074097 4.4821106 2.45074097 6.0546875 3.3203125 C7.64156372 4.18910034 7.64156372 4.18910034 9.26049805 5.07543945 C32.75082898 17.99274015 32.75082898 17.99274015 40.9296875 23.4453125 C41.29045105 26.41921997 41.29045105 26.41921997 41.27026367 30.28173828 C41.27070175 30.98428741 41.27113983 31.68683655 41.27159119 32.41067505 C41.26949771 34.73760576 41.24614145 37.06381986 41.22265625 39.390625 C41.21706226 41.00202033 41.21279123 42.61342075 41.20979309 44.224823 C41.19832876 48.469727 41.16884818 52.71432392 41.13568115 56.95910645 C41.10501432 61.28910162 41.09129502 65.61914632 41.07617188 69.94921875 C41.04397977 78.44805771 40.99276454 86.94664693 40.9296875 95.4453125 C40.2696875 95.4453125 39.6096875 95.4453125 38.9296875 95.4453125 C30.49445721 79.78340316 22.14171373 64.0858066 13.9609375 48.2890625 C9.66014978 39.9852339 5.29605174 31.71479239 0.9296875 23.4453125 C-0.03453125 23.7340625 -0.99875 24.0228125 -1.9921875 24.3203125 C-3.25546875 24.6915625 -4.51875 25.0628125 -5.8203125 25.4453125 C-7.07328125 25.8165625 -8.32625 26.1878125 -9.6171875 26.5703125 C-13.0703125 27.4453125 -13.0703125 27.4453125 -17.0703125 27.4453125 C-16.71018066 28.0851709 -16.35004883 28.7250293 -15.97900391 29.38427734 C-7.66893171 44.17771726 0.43049944 59.06716852 8.33694458 74.08026123 C13.29810259 83.50054825 18.29724738 92.89254055 23.49511719 102.18530273 C26.47239653 107.5256891 29.23123003 112.95903996 31.9296875 118.4453125 C33.88205516 118.17656545 33.88205516 118.17656545 35.9296875 117.4453125 C37.71348165 114.46178356 37.71348165 114.46178356 38.9296875 111.4453125 C40.5796875 111.4453125 42.2296875 111.4453125 43.9296875 111.4453125 C44.37191858 120.14252366 44.37191858 120.14252366 40.9296875 124.4453125 C38.7421875 126.2578125 38.7421875 126.2578125 36.9296875 127.4453125 C38.45278046 132.60916776 40.70840229 137.1029684 43.2421875 141.8203125 C43.67515137 142.63540283 44.10811523 143.45049316 44.55419922 144.2902832 C48.73172342 152.13288275 52.9950068 159.92926499 57.24243164 167.73413086 C60.64936714 174.01659865 63.94889553 180.33506319 67.09619141 186.7512207 C69.9672364 192.59096005 73.02803814 198.3248596 76.13769531 204.04077148 C78.9296875 209.23039622 78.9296875 209.23039622 78.9296875 211.4453125 C64.4096875 211.4453125 49.8896875 211.4453125 34.9296875 211.4453125 C32.7640625 206.8046875 32.7640625 206.8046875 30.5546875 202.0703125 C23.57864602 187.33873463 15.85145858 173.00547786 8.16772461 158.63525391 C5.80882866 154.22170112 3.45838713 149.80370687 1.11328125 145.3828125 C0.75027924 144.70014313 0.38727722 144.01747375 0.01327515 143.31411743 C-2.73195302 138.13389452 -5.35534965 132.90015942 -7.96020508 127.64794922 C-11.4076489 120.69947932 -15.02646955 113.84073833 -18.63012695 106.97241211 C-22.00704346 100.5233239 -25.31561871 94.04636719 -28.484375 87.4921875 C-32.36879915 79.56586255 -36.69843449 74.55420353 -43.8828125 69.4453125 C-46.4655911 67.08391492 -46.55571874 65.80953836 -47.0703125 62.4453125 C-47.49699219 63.31027344 -47.92367187 64.17523438 -48.36328125 65.06640625 C-53.31433935 75.05526423 -58.42908175 84.95498708 -63.58862305 94.83764648 C-66.12075887 99.68865762 -68.65025975 104.53727569 -71.0703125 109.4453125 C-63.69618757 109.35970757 -63.69618757 109.35970757 -57.1953125 106.3828125 C-52.12760179 103.24083186 -46.86701182 103.74290633 -41.0703125 104.4453125 C-35.88066038 106.57677676 -33.44830262 110.12683226 -31 115.0234375 C-29.45730586 119.04222055 -28.95804278 122.24806828 -30.0703125 126.4453125 C-32.38757422 130.93783105 -34.84811528 135.22668822 -39.37109375 137.70703125 C-42.67505774 138.61072039 -45.64526815 138.78340469 -49.0703125 138.8203125 C-50.2665625 138.84867188 -51.4628125 138.87703125 -52.6953125 138.90625 C-56.0703125 138.4453125 -56.0703125 138.4453125 -58.23828125 136.46875 C-62.83471786 133.18467529 -67.87215615 133.7661684 -73.3828125 133.6953125 C-74.50494141 133.66566406 -75.62707031 133.63601563 -76.78320312 133.60546875 C-79.54564457 133.53493833 -82.30725024 133.48215757 -85.0703125 133.4453125 C-85.1940625 134.0434375 -85.3178125 134.6415625 -85.4453125 135.2578125 C-86.0703125 137.4453125 -86.0703125 137.4453125 -88.0703125 140.4453125 C-91.0498224 140.71185196 -93.8191707 140.79299034 -96.796875 140.73828125 C-97.65969086 140.73403641 -98.52250671 140.72979156 -99.41146851 140.72541809 C-102.17306447 140.70859642 -104.93393633 140.67093848 -107.6953125 140.6328125 C-109.56509364 140.61777014 -111.4348862 140.60408096 -113.3046875 140.59179688 C-117.89350908 140.55868156 -122.48178794 140.50687589 -127.0703125 140.4453125 C-125.93078509 136.87982812 -124.72111802 133.4964116 -123.0390625 130.15234375 C-122.64654297 129.36851318 -122.25402344 128.58468262 -121.84960938 127.77709961 C-121.42744141 126.94573486 -121.00527344 126.11437012 -120.5703125 125.2578125 C-120.12236328 124.36908447 -119.67441406 123.48035645 -119.21289062 122.56469727 C-116.00302402 116.2209339 -112.71107813 109.92320511 -109.38256836 103.64111328 C-104.90383965 95.17041869 -100.51637177 86.65302055 -96.1328125 78.1328125 C-95.5418277 76.98455994 -95.5418277 76.98455994 -94.93890381 75.81311035 C-90.29409862 66.78378259 -85.69659166 57.73476283 -81.1953125 48.6328125 C-76.18414387 38.51217924 -70.88484595 28.54096502 -65.30908203 18.71923828 C-64.05958299 16.51237419 -64.05958299 16.51237419 -63.18701172 14.37060547 C-61.94747381 11.61391354 -60.74990246 9.76860793 -57.98876953 8.45507812 C-55.36736497 7.64690215 -52.75016692 7.02977644 -50.0703125 6.4453125 C-48.26514765 5.96365143 -46.46175911 5.47528656 -44.66015625 4.98046875 C-38.80295447 3.44507081 -32.93757552 1.94172823 -27.0703125 0.4453125 C-25.76682861 0.10886719 -25.76682861 0.10886719 -24.43701172 -0.234375 C-22.10921259 -0.83212172 -19.77827785 -1.41498305 -17.4453125 -1.9921875 C-16.42618774 -2.2560022 -16.42618774 -2.2560022 -15.38647461 -2.52514648 C-9.26033515 -4.00462281 -5.44364698 -2.97678687 0 0 Z " fill="#35B7C8" transform="translate(633.0703125,302.5546875)"/>
<path d="M0 0 C0.33 0 0.66 0 1 0 C1 8.25 1 16.5 1 25 C2.65 25.33 4.3 25.66 6 26 C7.93432617 26.87280273 7.93432617 26.87280273 9.79296875 27.93359375 C10.84689819 28.52769043 10.84689819 28.52769043 11.92211914 29.13378906 C12.66969482 29.56401367 13.41727051 29.99423828 14.1875 30.4375 C15.814999 31.35825884 17.44260601 32.27882676 19.0703125 33.19921875 C20.3082959 33.90377197 20.3082959 33.90377197 21.57128906 34.62255859 C25.22015087 36.69200756 28.89191138 38.7194349 32.5625 40.75 C34.85719038 42.02499735 37.15105895 43.30146416 39.44482422 44.578125 C41.24298269 45.57874367 43.04151992 46.57868186 44.84033203 47.578125 C57.29235501 54.50063298 69.67438409 61.52280673 81.95922852 68.73803711 C90.31855528 73.635067 98.75920737 78.37747008 107.2355957 83.06860352 C111.78312583 85.59468759 116.29421351 88.13916479 120.6953125 90.9140625 C121.72579712 91.56121216 121.72579712 91.56121216 122.77709961 92.22143555 C124.53224792 93.33867436 126.27276134 94.47881738 128.01171875 95.62109375 C131.68255679 97.31495758 133.11553914 96.92781994 137 96 C139.86247215 94.81283844 139.86247215 94.81283844 142.71875 93.26171875 C144.34731934 92.4116626 144.34731934 92.4116626 146.00878906 91.54443359 C147.16088867 90.93164551 148.31298828 90.31885742 149.5 89.6875 C150.71292779 89.04974425 151.92614793 88.41254423 153.13964844 87.77587891 C161.45062326 83.40350802 169.70481123 78.92699921 177.93188477 74.39892578 C184.38417466 70.85407308 190.89585865 67.43915191 197.4375 64.0625 C206.3616653 59.45212374 215.11029647 54.58172797 223.82958984 49.59643555 C231.74680966 45.09062822 239.80256976 40.96681368 248 37 C249.07121094 36.41476562 250.14242188 35.82953125 251.24609375 35.2265625 C254 34 254 34 257 35 C258.41040039 37.17724609 258.41040039 37.17724609 259.84765625 40.0234375 C260.63172852 41.55484375 260.63172852 41.55484375 261.43164062 43.1171875 C261.96982422 44.19226563 262.50800781 45.26734375 263.0625 46.375 C264.13540756 48.48764557 265.20957149 50.59965369 266.28515625 52.7109375 C266.75832275 53.65243652 267.23148926 54.59393555 267.71899414 55.56396484 C269.02523592 58.15019268 269.02523592 58.15019268 271 61 C271 61.99 271 62.98 271 64 C269.83726562 64.60585938 268.67453125 65.21171875 267.4765625 65.8359375 C256.21857314 71.72020192 245.07586441 77.78070473 234 84 C229.91707188 86.29238967 225.83381298 88.58418697 221.75 90.875 C220.69385498 91.46772705 219.63770996 92.0604541 218.54956055 92.67114258 C210.53990299 97.15813869 202.4881597 101.56338943 194.41748047 105.93945312 C189.6883526 108.51025691 185.00537771 111.13040517 180.375 113.875 C175.77332736 116.60191712 171.06290026 118.9863234 166.26171875 121.33984375 C162.46731836 123.27112539 158.76564238 125.33801141 155.0625 127.4375 C154.38759521 127.8180957 153.71269043 128.19869141 153.01733398 128.59082031 C149.75585942 130.43169103 146.50433301 132.28734517 143.265625 134.16796875 C142.12609375 134.81378906 140.9865625 135.45960938 139.8125 136.125 C138.80832031 136.70507812 137.80414062 137.28515625 136.76953125 137.8828125 C133.46482452 139.21588179 132.32669 139.20649304 129 138 C126.60417777 136.70519902 124.31148368 135.36864784 122 133.9375 C114.06920614 129.14965037 105.99673286 124.64072768 97.875 120.1875 C95.34591359 118.79897798 92.81730248 117.40959384 90.2890625 116.01953125 C89.66753296 115.67781387 89.04600342 115.3360965 88.40563965 114.98402405 C81.72612082 111.3066492 75.0903787 107.55309516 68.45800781 103.79150391 C61.52571936 99.86013795 54.57964968 95.95417078 47.625 92.0625 C46.58641846 91.48097168 45.54783691 90.89944336 44.4777832 90.30029297 C39.22412572 87.35967645 33.96762856 84.42427771 28.70703125 81.49609375 C17.3033237 75.1408887 5.97020525 68.6859615 -5.28173828 62.06542969 C-12.77500126 57.67114744 -20.35416708 53.45512617 -28.02270508 49.37426758 C-28.79767334 48.95685303 -29.5726416 48.53943848 -30.37109375 48.109375 C-31.3909436 47.56748535 -31.3909436 47.56748535 -32.43139648 47.01464844 C-34 46 -34 46 -35 44 C-35.01633666 41.96581093 -34.96438346 39.93089555 -34.87890625 37.8984375 C-34.83056641 36.68671875 -34.78222656 35.475 -34.73242188 34.2265625 C-34.67634766 32.95554687 -34.62027344 31.68453125 -34.5625 30.375 C-34.51029297 29.09625 -34.45808594 27.8175 -34.40429688 26.5 C-34.2743123 23.333103 -34.13933598 20.16649713 -34 17 C-33.67 17 -33.34 17 -33 17 C-33 25.25 -33 33.5 -33 42 C-29.17507066 40.12168649 -25.38941161 38.25399302 -21.62109375 36.28125 C-18.59985543 34.72985536 -15.61437732 33.46471223 -12.41015625 32.34375 C-5.88442788 29.82267455 -5.88442788 29.82267455 -1 25 C1.2318237 16.91882855 0.62384623 8.28193457 0 0 Z " fill="#0C3370" transform="translate(380,451)"/>
<path d="M0 0 C6.373125 -0.0309375 6.373125 -0.0309375 12.875 -0.0625 C14.2141748 -0.071604 15.55334961 -0.08070801 16.93310547 -0.09008789 C18.50922607 -0.09383423 18.50922607 -0.09383423 20.1171875 -0.09765625 C21.73536377 -0.10551147 21.73536377 -0.10551147 23.38623047 -0.11352539 C26 0 26 0 28 1 C29.35752296 1.11704964 30.72025888 1.17677189 32.08251953 1.20532227 C32.92324005 1.22526749 33.76396057 1.24521271 34.63015747 1.26576233 C35.99272171 1.29083107 35.99272171 1.29083107 37.3828125 1.31640625 C38.77691849 1.3475779 38.77691849 1.3475779 40.19918823 1.37937927 C43.1743821 1.44487646 46.14966577 1.50376052 49.125 1.5625 C51.13933228 1.60568506 53.15365541 1.64929934 55.16796875 1.69335938 C60.11188663 1.80055803 65.05589503 1.90182501 70 2 C70.99 5.465 70.99 5.465 72 9 C67.62246293 13.37753707 58.96179978 12.05970422 53.1171875 12.09765625 C50.70310547 12.09109624 48.28903249 12.07930001 45.875 12.0625 C44.01101563 12.05573242 44.01101563 12.05573242 42.109375 12.04882812 C39.07286498 12.03714924 36.03645912 12.0207714 33 12 C33 13.98 33 15.96 33 18 C33.73661865 18.11480713 34.4732373 18.22961426 35.23217773 18.34790039 C38.04668603 19.01099924 39.85332428 19.90041559 42.28515625 21.43359375 C43.06310547 21.91763672 43.84105469 22.40167969 44.64257812 22.90039062 C45.84043945 23.66125977 45.84043945 23.66125977 47.0625 24.4375 C48.65670051 25.43755671 50.25172459 26.43630201 51.84765625 27.43359375 C52.54898682 27.87759521 53.25031738 28.32159668 53.97290039 28.77905273 C59.70473864 32.23141008 63.44865128 32.56730171 70 31 C72.35682913 29.6365372 72.35682913 29.6365372 74.63671875 27.98999023 C80.21917676 24.53086924 84.7232013 24.12152944 91.1875 24.16015625 C92.79667297 24.1354274 92.79667297 24.1354274 94.43835449 24.11019897 C97.9593137 24.06479789 101.47877137 24.06270791 105 24.0625 C107.46030167 24.04150773 109.92058903 24.01877364 112.38085938 23.99438477 C139.58820087 23.78394088 166.80231342 24.33397412 194 25 C194 24.01 194 23.02 194 22 C198.67897317 18.32800436 203.0202916 18.37786109 208.765625 18.52734375 C213.77211188 19.25896804 216.71961524 21.21308524 220 25 C222.76535217 28.80235924 223.97812346 31.77491384 224.0625 36.5 C221.9536924 43.44666032 218.66539284 48.51524869 212.2578125 52.1328125 C209.78211448 53.08368613 207.89392083 53.23790662 205.25 53.3125 C195.45632858 53.73890985 185.7719386 58.84063936 176.98999023 62.93774414 C173.62211173 64.48968494 171.2464929 65.398446 167.5625 64.6875 C166.386875 64.460625 165.21125 64.23375 164 64 C164 62.68 164 61.36 164 60 C165.74414062 58.53613281 165.74414062 58.53613281 168.15625 57.203125 C169.01347656 56.71972656 169.87070312 56.23632812 170.75390625 55.73828125 C171.66011719 55.24714844 172.56632813 54.75601563 173.5 54.25 C174.40621094 53.74339844 175.31242188 53.23679687 176.24609375 52.71484375 C178.49024525 51.46284344 180.74128565 50.22547268 183 49 C173.89825513 48.90702125 164.79667559 48.83609448 155.69455814 48.79275131 C151.46734313 48.77194105 147.24045479 48.74374478 143.01342773 48.69824219 C138.92852538 48.65454835 134.84393581 48.63081363 130.75881767 48.62049103 C129.20598876 48.61314161 127.65317556 48.59879045 126.10048103 48.57707977 C114.99205731 48.37540168 114.99205731 48.37540168 104.68479919 52.13873291 C103 53 103 53 100 53 C101.175625 54.11375 101.175625 54.11375 102.375 55.25 C104.56504531 57.54433318 105.82731386 59.12158858 107 62 C105.5459375 62.928125 105.5459375 62.928125 104.0625 63.875 C100.97164638 65.65678846 100.97164638 65.65678846 100 68 C103.29610702 69.4126173 106.40528454 70.71620667 110 71 C110.42539062 70.52046875 110.85078125 70.0409375 111.2890625 69.546875 C114.36737324 66.76374475 118.05299035 67.4241601 122.015625 67.5 C125.98308946 68.16470609 127.39152134 69.76267848 130.06640625 72.59765625 C134.01931558 75.46451373 139.27484923 74.98448226 144 75 C144.33 75.99 144.66 76.98 145 78 C143.37750059 78.83819158 141.75191503 79.6704116 140.125 80.5 C139.22007812 80.9640625 138.31515625 81.428125 137.3828125 81.90625 C135 83 135 83 133 83 C133.1546875 84.11375 133.1546875 84.11375 133.3125 85.25 C133 88 133 88 130.9375 90.0625 C129.968125 90.701875 128.99875 91.34125 128 92 C127.45730469 92.36351562 126.91460938 92.72703125 126.35546875 93.1015625 C122.30592935 95.64280844 118.88544207 97.16560821 114 97 C109.96516717 95.69252484 106.87959062 94.15221459 104 91 C103.14577431 86.87560969 103.39576295 83.14909439 104 79 C102.700625 78.5978125 102.700625 78.5978125 101.375 78.1875 C98 77 98 77 94.875 75.3125 C92.19193983 73.80305218 92.19193983 73.80305218 89.8125 74.1875 C87.72709777 75.06218026 87.72709777 75.06218026 85 77 C81.15054689 76.66339482 78.39347756 75.28996534 75.10546875 73.33203125 C73.69116577 72.49768555 73.69116577 72.49768555 72.24829102 71.64648438 C71.23822998 71.04126953 70.22816895 70.43605469 69.1875 69.8125 C67.0130848 68.52723552 64.83860383 67.24208231 62.6640625 65.95703125 C61.55450195 65.29783691 60.44494141 64.63864258 59.30175781 63.95947266 C54.23421037 60.95206836 49.15055994 57.97253817 44.0625 55 C43.08893555 54.43079834 42.11537109 53.86159668 41.11230469 53.27514648 C30.72063025 47.22014837 20.22286301 41.35618479 9.70874023 35.51708984 C6.46113356 33.69819594 3.23183892 31.8467651 0 30 C0 20.1 0 10.2 0 0 Z " fill="#1D8BA5" transform="translate(402,433)"/>
<path d="M0 0 C1.41040039 2.17724609 1.41040039 2.17724609 2.84765625 5.0234375 C3.37037109 6.044375 3.89308594 7.0653125 4.43164062 8.1171875 C5.23891602 9.72980469 5.23891602 9.72980469 6.0625 11.375 C7.13540756 13.48764557 8.20957149 15.59965369 9.28515625 17.7109375 C9.75832275 18.65243652 10.23148926 19.59393555 10.71899414 20.56396484 C12.02523592 23.15019268 12.02523592 23.15019268 14 26 C14 26.99 14 27.98 14 29 C12.83726562 29.60585938 11.67453125 30.21171875 10.4765625 30.8359375 C-0.78142686 36.72020192 -11.92413559 42.78070473 -23 49 C-27.08292812 51.29238967 -31.16618702 53.58418697 -35.25 55.875 C-36.30614502 56.46772705 -37.36229004 57.0604541 -38.45043945 57.67114258 C-46.46009701 62.15813869 -54.5118403 66.56338943 -62.58251953 70.93945312 C-67.3116474 73.51025691 -71.99462229 76.13040517 -76.625 78.875 C-81.22667264 81.60191712 -85.93709974 83.9863234 -90.73828125 86.33984375 C-94.53265779 88.27111325 -98.23458528 90.33764153 -101.9375 92.4375 C-102.61095459 92.8180957 -103.28440918 93.19869141 -103.97827148 93.59082031 C-106.63188289 95.09111787 -109.28510848 96.59198081 -111.93261719 98.10302734 C-113.72061522 99.12014359 -115.5154376 100.12401034 -117.3125 101.125 C-118.33988281 101.70507812 -119.36726562 102.28515625 -120.42578125 102.8828125 C-123 104 -123 104 -126 103 C-125.34 103 -124.68 103 -124 103 C-124 89.8 -124 76.6 -124 63 C-117.008125 59.41125 -117.008125 59.41125 -109.875 55.75 C-99.4668615 50.39182888 -89.11797182 44.95128992 -78.86645508 39.29760742 C-72.48249098 35.7841372 -66.03764829 32.40451202 -59.5625 29.0625 C-50.63831557 24.45216426 -41.88970139 19.58172674 -33.17041016 14.59643555 C-25.25319034 10.09062822 -17.19743024 5.96681368 -9 2 C-7.92878906 1.41476562 -6.85757813 0.82953125 -5.75390625 0.2265625 C-3 -1 -3 -1 0 0 Z " fill="#279F9E" transform="translate(637,486)"/>
<path d="M0 0 C6.27 0 12.54 0 19 0 C26.3884209 14.48709981 33.2022798 29.2295948 40 44 C40.5053125 45.09602539 41.010625 46.19205078 41.53125 47.32128906 C46.29328438 57.65275061 51.02848241 67.99661491 55.6875 78.375 C56.02692627 79.12475098 56.36635254 79.87450195 56.71606445 80.64697266 C59 85.76720366 59 85.76720366 59 88 C52.4 88 45.8 88 39 88 C37.68 85.07125 36.36 82.1425 35 79.125 C34.58234375 78.20348145 34.1646875 77.28196289 33.734375 76.33251953 C33.40953125 75.60661621 33.0846875 74.88071289 32.75 74.1328125 C32.41484375 73.38918457 32.0796875 72.64555664 31.734375 71.87939453 C31 70 31 70 31 68 C16.81 68.33 2.62 68.66 -12 69 C-14.64 75.27 -17.28 81.54 -20 88 C-26.6 88 -33.2 88 -40 88 C-38.48755989 83.46267966 -36.83299612 79.23357779 -34.83203125 74.91796875 C-34.5203299 74.23887451 -34.20862854 73.55978027 -33.88748169 72.86010742 C-32.86532296 70.63458894 -31.83893778 68.41104774 -30.8125 66.1875 C-29.73044268 63.83524591 -28.64943153 61.4825131 -27.56855774 59.12971497 C-26.82612855 57.51366399 -26.08335754 55.89777 -25.34025574 54.2820282 C-22.82558758 48.81086533 -20.33145964 43.33075356 -17.8515625 37.84375 C-17.51982529 37.11045975 -17.18808807 36.37716949 -16.84629822 35.62165833 C-14.93369864 31.39358625 -14.93369864 31.39358625 -13.02627563 27.16317749 C-8.89687769 17.99179729 -4.54718237 8.97272037 0 0 Z " fill="#0D193A" transform="translate(266,644)"/>
<path d="M0 0 C4.93498232 0.03767162 7.97923492 2.78020559 11.7734375 5.67578125 C15.0896498 8.11848021 18.51988766 9.77309614 22.25 11.5 C22.25 11.83 22.25 12.16 22.25 12.5 C20.27 12.83 18.29 13.16 16.25 13.5 C16.23582031 14.08007812 16.22164062 14.66015625 16.20703125 15.2578125 C15.83462911 21.35715559 14.74948812 24.30729516 10.25 28.5 C6.50850436 30.38646839 3.829845 30.61784671 -0.3125 30.3125 C-4.58433779 30.19193772 -4.58433779 30.19193772 -8.1875 32.3125 C-9.7787203 35.31351173 -9.7787203 35.31351173 -10.43920898 37.96704102 C-12.76575037 46.00258412 -16.20102475 49.51800342 -23.375 53.625 C-24.33486816 54.18993164 -25.29473633 54.75486328 -26.28369141 55.33691406 C-35.02693896 60.00091428 -42.70498788 60.3877098 -52.44848633 60.17871094 C-62.96788236 60.08050985 -69.40137215 63.4533445 -77.75 69.5 C-82.43340611 72.5 -82.43340611 72.5 -84.75 72.5 C-84.75 75.14 -84.75 77.78 -84.75 80.5 C-95.97 80.5 -107.19 80.5 -118.75 80.5 C-118.75 74.56 -118.75 68.62 -118.75 62.5 C-108.72861284 56.92288019 -98.69745956 51.36412307 -88.65365601 45.82748413 C-78.60456803 40.2876685 -68.55915802 34.74129561 -58.52584839 29.17294312 C-56.78975127 28.20955854 -55.05320601 27.24698168 -53.31665039 26.28442383 C-52.26340576 25.69943115 -51.21016113 25.11443848 -50.125 24.51171875 C-49.20460938 24.00084717 -48.28421875 23.48997559 -47.3359375 22.96362305 C-45.55561298 21.95597147 -43.79955688 20.90461144 -42.06591797 19.81860352 C-39.29550785 18.2412279 -37.99047074 18.29213529 -34.875 18.75 C-34.00359375 18.86085938 -33.1321875 18.97171875 -32.234375 19.0859375 C-30.18139707 19.42810049 -28.14819101 19.88664355 -26.125 20.375 C-21.29106672 20.55403457 -18.52079205 18.33054261 -14.75 15.5 C-15.03875 14.30375 -15.3275 13.1075 -15.625 11.875 C-15.95474843 9.26023429 -16.02172495 7.97025462 -14.69140625 5.66796875 C-10.20249292 0.87590803 -6.2887626 0.83850168 0 0 Z " fill="#188DC3" transform="translate(520.75,295.5)"/>
<path d="M0 0 C3.96 0 7.92 0 12 0 C12.33 11.88 12.66 23.76 13 36 C15.64 33.69 18.28 31.38 21 29 C28.36190115 25.31904942 36.37541364 25.14579346 44.25 27.4375 C52.07873279 30.4676436 57.79879046 35.34769118 62 42.625 C66.32077694 52.45589666 65.70710579 62.28044293 62.1640625 72.22265625 C58.83197694 80.17269931 53.37993299 85.49861186 45.75 89.375 C38.05915588 92.49573301 30.04991377 91.6275274 22.3046875 89.06640625 C18.54521774 87.32685499 15.95019297 84.88605834 13 82 C12.67 84.64 12.34 87.28 12 90 C8.04 90 4.08 90 0 90 C0 60.3 0 30.6 0 0 Z " fill="#2EA79E" transform="translate(751,642)"/>
<path d="M0 0 C22.11 0 44.22 0 67 0 C67 5.28 67 10.56 67 16 C51.16 16 35.32 16 19 16 C19 22.93 19 29.86 19 37 C33.19 37 47.38 37 62 37 C62 41.95 62 46.9 62 52 C47.81 52 33.62 52 19 52 C19 58.93 19 65.86 19 73 C35.17 73 51.34 73 68 73 C68 78.28 68 83.56 68 89 C45.56 89 23.12 89 0 89 C0 59.63 0 30.26 0 0 Z " fill="#0F1939" transform="translate(151,643)"/>
<path d="M0 0 C3.34588985 0.45942616 5.96204389 1.95109453 8.875 3.59765625 C9.84550293 4.14349365 10.81600586 4.68933105 11.81591797 5.25170898 C13.39203857 6.14805054 13.39203857 6.14805054 15 7.0625 C16.65539795 7.99654663 16.65539795 7.99654663 18.34423828 8.94946289 C27.124019 13.9115991 35.87421495 18.92567559 44.6242981 23.93994141 C53.52868175 29.04134507 62.46590636 34.08023632 71.4375 39.0625 C72.50790527 39.65732178 73.57831055 40.25214355 74.68115234 40.86499023 C82.08940141 44.96931058 89.53533688 48.99947468 97 53 C96.67 53.99 96.34 54.98 96 56 C94.15258789 56.72021484 94.15258789 56.72021484 91.72265625 57.2109375 C90.82490479 57.40147705 89.92715332 57.5920166 89.00219727 57.78833008 C88.03209717 57.98193115 87.06199707 58.17553223 86.0625 58.375 C77.89844189 60.09813114 69.87893937 62.02717169 61.90063477 64.47607422 C56.35223749 66.11373887 51.51090526 67.01595534 46.02832031 64.79760742 C45.05475586 64.23920166 44.08119141 63.6807959 43.078125 63.10546875 C41.42876953 62.17359741 41.42876953 62.17359741 39.74609375 61.22290039 C38.58059542 60.54466338 37.41523341 59.86619205 36.25 59.1875 C35.04894635 58.50312411 33.84711585 57.82010985 32.64453125 57.13842773 C27.10648733 53.98913309 21.60670283 50.7744424 16.109375 47.5546875 C15.23764648 47.04526611 14.36591797 46.53584473 13.46777344 46.01098633 C11.85702518 45.0655402 10.25066258 44.11257067 8.64941406 43.15112305 C4.60665043 40.66938437 4.60665043 40.66938437 0 40 C0 39.34 0 38.68 0 38 C0.66 38 1.32 38 2 38 C1.67 26.12 1.34 14.24 1 2 C-0.32 2.33 -1.64 2.66 -3 3 C-1.75 1.4375 -1.75 1.4375 0 0 Z " fill="#32BADB" transform="translate(510,235)"/>
<path d="M0 0 C5.98829595 4.89951487 8.63890466 8.99077753 11.75 16.25 C11.75 21.53 11.75 26.81 11.75 32.25 C-3.43 32.25 -18.61 32.25 -34.25 32.25 C-30.74476028 41.12016529 -30.74476028 41.12016529 -24.25 45.25 C-21.39921909 46.01716851 -21.39921909 46.01716851 -18.25 46.25 C-16.39375 46.435625 -16.39375 46.435625 -14.5 46.625 C-9.83521676 46.625 -6.46502577 44.50681488 -2.546875 42.1484375 C-0.25 41.25 -0.25 41.25 1.875 41.9375 C4.47505951 43.75754166 6.57244695 45.95147179 8.75 48.25 C7.01406465 52.66874454 4.14094739 55.13586781 -0.14453125 57.1328125 C-10.82722353 61.34052686 -21.53160828 61.46759201 -32.25 57.25 C-38.93691247 53.44537739 -45.26312876 47.44446377 -48.25 40.25 C-50.4292342 30.23118303 -51.00296918 19.20454582 -45.58984375 10.22265625 C-45.14769531 9.57167969 -44.70554687 8.92070313 -44.25 8.25 C-43.693125 7.3425 -43.13625 6.435 -42.5625 5.5 C-30.65314389 -6.08748162 -14.42208278 -7.76573688 0 0 Z " fill="#1A2A49" transform="translate(452.25,672.75)"/>
<path d="M0 0 C0.78705322 -0.00612305 1.57410645 -0.01224609 2.38500977 -0.01855469 C8.97875531 0.12169389 15.41883145 1.18540392 20.71484375 5.33203125 C21.24207031 5.98558594 21.76929688 6.63914062 22.3125 7.3125 C22.85777344 7.95832031 23.40304687 8.60414063 23.96484375 9.26953125 C27.74445128 15.24780244 27.64429186 21.09724219 27.5703125 27.9296875 C27.5674826 28.92001984 27.56465271 29.91035217 27.56173706 30.93069458 C27.5505847 34.07892176 27.52548907 37.22685949 27.5 40.375 C27.48996382 42.51562088 27.48083908 44.65624624 27.47265625 46.796875 C27.45066153 52.03136072 27.41616563 57.26563136 27.375 62.5 C23.745 62.5 20.115 62.5 16.375 62.5 C16.375 60.52 16.375 58.54 16.375 56.5 C15.78332031 56.90992188 15.19164062 57.31984375 14.58203125 57.7421875 C13.39673828 58.55042969 13.39673828 58.55042969 12.1875 59.375 C11.41019531 59.90867187 10.63289062 60.44234375 9.83203125 60.9921875 C2.93973184 65.22180208 -3.68816683 65.34636523 -11.625 64.5 C-18.77837696 62.24300231 -23.16068893 58.81254438 -26.875 52.3125 C-28.37845111 46.67455834 -28.59391598 41.47509795 -26 36.1875 C-20.50447138 29.96887551 -16.76865196 27.6407797 -8.625 26.5 C-4.43241355 26.28015114 -0.25927486 26.30922776 3.9375 26.375 C5.59362305 26.38853516 5.59362305 26.38853516 7.28320312 26.40234375 C9.9807017 26.42569872 12.67773077 26.45844946 15.375 26.5 C15.10406437 24.88472728 14.81875064 23.27186159 14.52734375 21.66015625 C14.36999756 20.76176025 14.21265137 19.86336426 14.05053711 18.93774414 C13.50816338 16.23744272 13.50816338 16.23744272 10.9375 13.9375 C4.94289226 10.57467127 -2.39416902 10.43537913 -9.015625 12.1015625 C-10.91789224 12.82035814 -12.77484593 13.65607007 -14.625 14.5 C-15.615 14.891875 -16.605 15.28375 -17.625 15.6875 C-18.285 15.955625 -18.945 16.22375 -19.625 16.5 C-21.275 14.19 -22.925 11.88 -24.625 9.5 C-17.62670427 2.03940228 -9.96652059 0.04275391 0 0 Z " fill="#2FA79E" transform="translate(705.625,668.5)"/>
<path d="M0 0 C4.62 0 9.24 0 14 0 C14.33 11.55 14.66 23.1 15 35 C16.65 33.35 18.3 31.7 20 30 C25.6059267 26.07585131 31.23914847 25.35553034 38 26 C44.86339126 27.307884 50.65517242 30.44609145 55 36 C57.92529634 42.39287999 58.40750107 47.64951636 58.29296875 54.625 C58.28872391 55.61250244 58.28447906 56.60000488 58.28010559 57.61743164 C58.26342646 60.74524177 58.22579435 63.8723874 58.1875 67 C58.17243925 69.13150106 58.15875329 71.2630123 58.14648438 73.39453125 C58.11355821 78.5966069 58.06185078 83.79819111 58 89 C53.38 89 48.76 89 44 89 C43.98541748 87.84999512 43.97083496 86.69999023 43.95581055 85.51513672 C43.89766238 81.23211195 43.82043076 76.94960384 43.73754883 72.66699219 C43.70437704 70.81649181 43.67632113 68.96589214 43.65356445 67.11523438 C43.6198755 64.44878997 43.5675534 61.7832491 43.51171875 59.1171875 C43.50532883 58.29507782 43.4989389 57.47296814 43.49235535 56.62594604 C43.36736203 51.69826483 42.68144125 48.2878403 40 44 C36.79112599 40.99168062 33.80933918 40.74113231 29.5625 40.5625 C24.6000028 40.72947501 21.62421958 41.37578042 18 45 C15.43246771 50.71471789 14.54155261 55.43563298 14.48828125 61.65625 C14.47033005 62.44398804 14.45237885 63.23172607 14.43388367 64.04333496 C14.38023695 66.52883749 14.34603384 69.0141532 14.3125 71.5 C14.27928643 73.19794242 14.2447931 74.89586032 14.20898438 76.59375 C14.12453777 80.72903075 14.05751144 84.86426052 14 89 C9.38 89 4.76 89 0 89 C0 59.63 0 30.26 0 0 Z " fill="#182A49" transform="translate(541,642)"/>
<path d="M0 0 C22.77 0 45.54 0 69 0 C69 4.62 69 9.24 69 14 C60.09 14 51.18 14 42 14 C42 37.76 42 61.52 42 86 C37.05 86 32.1 86 27 86 C27 62.24 27 38.48 27 14 C18.09 14 9.18 14 0 14 C0 9.38 0 4.76 0 0 Z " fill="#152544" transform="translate(342,645)"/>
<path d="M0 0 C8.96639191 -0.39188776 16.24476606 2.11153258 23.328125 7.5546875 C24.921875 9.15234375 24.921875 9.15234375 26.921875 13.15234375 C23.951875 15.79234375 20.981875 18.43234375 17.921875 21.15234375 C16.705 20.16234375 15.488125 19.17234375 14.234375 18.15234375 C8.35639815 14.22749212 2.78856855 14.09244514 -4.078125 15.15234375 C-9.11172133 17.53667885 -12.57809287 21.15227948 -15.078125 26.15234375 C-15.79853426 33.16747656 -15.60779758 39.48062908 -11.078125 45.15234375 C-7.06376653 49.02501898 -3.12271361 50.48511855 2.421875 50.77734375 C7.32783096 50.57292892 10.39384694 49.19914481 14.265625 46.24609375 C15.921875 45.15234375 15.921875 45.15234375 18.921875 45.15234375 C20.96484375 46.46484375 20.96484375 46.46484375 23.109375 48.15234375 C23.82480469 48.70921875 24.54023437 49.26609375 25.27734375 49.83984375 C25.82003906 50.27296875 26.36273437 50.70609375 26.921875 51.15234375 C26.16313336 55.34348802 24.51872519 57.05820153 21.27734375 59.69140625 C12.72011052 64.99887761 3.20524371 66.18816471 -6.515625 64.46484375 C-15.81098577 62.13301785 -22.66783709 57.0518721 -28.078125 49.15234375 C-32.37762569 40.87075518 -32.80317705 29.04818833 -30.19921875 20.1484375 C-25.80565277 10.65079487 -18.73393212 4.89259967 -9.078125 1.15234375 C-5.98507863 0.44691212 -3.14496665 0.23055207 0 0 Z " fill="#192A4A" transform="translate(503.078125,667.84765625)"/>
<path d="M0 0 C8.83173008 -0.51291354 17.71863649 2.42351605 25.08984375 7.1875 C23.84066955 10.64675163 22.4145658 13.33443203 20.08984375 16.1875 C15.08984375 14.1875 15.08984375 14.1875 12.85546875 13.1328125 C9.46350624 11.97341289 6.60695219 11.92218617 3.02734375 11.9375 C1.81949219 11.93234375 0.61164062 11.9271875 -0.6328125 11.921875 C-3.70166169 12.17060175 -5.46204359 12.3499336 -7.91015625 14.1875 C-8.7288581 17.74956661 -8.7288581 17.74956661 -8.91015625 21.1875 C-5.33267945 24.4269475 -1.27242391 25.41044338 3.27734375 26.625 C20.94043482 31.62430564 20.94043482 31.62430564 26.08984375 39.1875 C27.73464991 44.12191849 27.68004805 48.45160499 26.02734375 53.3125 C21.91384271 59.41640478 16.39309576 63.74861426 9.08984375 65.1875 C-2.54016515 66.12684687 -12.01216769 64.73370251 -22.07421875 58.8203125 C-22.68007813 58.28148437 -23.2859375 57.74265625 -23.91015625 57.1875 C-23.91015625 52.46843812 -22.62261421 50.91712969 -19.91015625 47.1875 C-19.14574219 47.620625 -18.38132812 48.05375 -17.59375 48.5 C-8.8645293 53.03793423 -1.83146135 54.69675514 8.08984375 53.1875 C10.98283281 52.01722609 10.98283281 52.01722609 13.08984375 50.1875 C13.92317708 46.6875 13.92317708 46.6875 13.08984375 43.1875 C9.06421586 39.99502914 4.68369488 39.28615267 -0.22265625 38.3125 C-8.13070052 36.60422113 -14.28805532 34.36703303 -19.91015625 28.1875 C-22.24023909 22.91415463 -23.18467918 17.53466944 -21.10546875 12.07421875 C-18.01170162 6.40942446 -13.80572365 3.60457754 -7.91015625 1.1875 C-5.20701054 0.45539804 -2.76539897 0.27145021 0 0 Z " fill="#32ABA1" transform="translate(847.91015625,667.8125)"/>
<path d="M0 0 C4.29 0 8.58 0 13 0 C13 24.75 13 49.5 13 75 C26.86 75 40.72 75 55 75 C55 78.96 55 82.92 55 87 C36.85 87 18.7 87 0 87 C0 58.29 0 29.58 0 0 Z " fill="#2EA9A2" transform="translate(616,645)"/>
<path d="M0 0 C4.54751723 5.28314501 4.98946689 12.0179609 4.87109375 18.8046875 C4.17411497 23.94858725 1.58024674 28.25348505 -2.21875 31.7265625 C-7.76572082 35.42454305 -13.76946189 36.84137029 -20.40625 35.8515625 C-27.07778176 33.86643629 -30.91269243 29.7386301 -34.40625 23.8515625 C-36.4066723 17.85029561 -36.60861157 10.33463683 -34.53515625 4.328125 C-31.16478515 -1.44018226 -26.51179644 -5.26950926 -20.09375 -7.0859375 C-11.69880699 -7.22822467 -6.21713015 -5.78396944 0 0 Z " fill="#F5F7F7" transform="translate(798.40625,686.1484375)"/>
<path d="M0 0 C2.47197114 3.04900578 4.08195814 6.09727749 5.6640625 9.68359375 C6.38722656 11.32231445 6.38722656 11.32231445 7.125 12.99414062 C7.62 14.13044922 8.115 15.26675781 8.625 16.4375 C9.12773437 17.56994141 9.63046875 18.70238281 10.1484375 19.86914062 C12.25291402 24.66927053 13.96578 28.82890002 15 34 C5.43 34 -4.14 34 -14 34 C-13.10498044 29.52490222 -11.92619209 26.28393792 -10.05859375 22.16796875 C-9.77146011 21.53135818 -9.48432648 20.89474762 -9.18849182 20.23884583 C-8.27635209 18.21949002 -7.35705292 16.20348922 -6.4375 14.1875 C-5.8152785 12.8133668 -5.1935286 11.43901995 -4.57226562 10.06445312 C-3.05362805 6.7071451 -1.52855513 3.35280629 0 0 Z " fill="#F2F2F4" transform="translate(275,663)"/>
<path d="M0 0 C1.02802734 0.00322266 2.05605469 0.00644531 3.11523438 0.00976562 C4.72301758 0.02233398 4.72301758 0.02233398 6.36328125 0.03515625 C7.44673828 0.03966797 8.53019531 0.04417969 9.64648438 0.04882812 C12.3229721 0.06061882 14.99934902 0.07707562 17.67578125 0.09765625 C17.81519849 6.92910097 17.32715815 9.89771862 12.86328125 15.28515625 C8.17042414 19.17352357 2.97812842 19.54228405 -2.91796875 19.41796875 C-6.53266969 18.93679103 -8.64625209 17.50782625 -11.32421875 15.09765625 C-12.90100181 12.87582557 -13.28190776 11.33338893 -13.76171875 8.66015625 C-13.1230713 4.91950691 -11.17322686 3.48287234 -8.32421875 1.09765625 C-5.26502487 0.07792496 -3.2000385 -0.01767977 0 0 Z " fill="#F4F7F7" transform="translate(703.32421875,703.90234375)"/>
<path d="M0 0 C3.3470469 1.89354844 5.19415123 3.64595003 6.625 7.3125 C6.625 8.9625 6.625 10.6125 6.625 12.3125 C-3.935 12.3125 -14.495 12.3125 -25.375 12.3125 C-24.11601775 6.01758873 -21.77386278 2.94808826 -16.625 -0.5625 C-10.78515106 -2.58398617 -5.67043183 -2.56420263 0 0 Z " fill="#F4F4F5" transform="translate(443.375,681.6875)"/>
<path d="M0 0 C0.94875 0.804375 1.8975 1.60875 2.875 2.4375 C7.30250251 5.65584884 11.6529994 5.88165592 17 6 C17 6.33 17 6.66 17 7 C13.37 7 9.74 7 6 7 C5.67 7.99 5.34 8.98 5 10 C2.39517051 10.94721072 0.69325299 11.30222393 -1.890625 10.17578125 C-3.62582873 9.17063275 -5.31640423 8.0893855 -7 7 C-5.54744301 3.17053157 -3.57104439 1.87949705 0 0 Z " fill="#D3ECED" transform="translate(509,494)"/>
<path d="M0 0 C0.33 0 0.66 0 1 0 C1 12.87 1 25.74 1 39 C-0.65 38.67 -2.3 38.34 -4 38 C-4.33 37.34 -4.66 36.68 -5 36 C-3.68 36.33 -2.36 36.66 -1 37 C-0.67 24.79 -0.34 12.58 0 0 Z " fill="#0C3762" transform="translate(512,550)"/>
<path d="M0 0 C14.19 0 28.38 0 43 0 C43 0.33 43 0.66 43 1 C41.77369873 1.02505615 40.54739746 1.0501123 39.28393555 1.07592773 C34.7384173 1.17003054 30.19305083 1.27024433 25.64770508 1.37231445 C23.67964221 1.41565241 21.71154202 1.45732832 19.7434082 1.49731445 C16.9160639 1.55504445 14.08890729 1.61873116 11.26171875 1.68359375 C10.38037766 1.70030624 9.49903656 1.71701874 8.59098816 1.73423767 C7.3600518 1.7641555 7.3600518 1.7641555 6.10424805 1.79467773 C5.38254929 1.81022202 4.66085052 1.8257663 3.9172821 1.84178162 C1.77891856 1.94195257 1.77891856 1.94195257 -1 3 C-0.67 2.01 -0.34 1.02 0 0 Z " fill="#BFC1CC" transform="translate(254,712)"/>
<path d="M0 0 C0.33 0 0.66 0 1 0 C1 3.96 1 7.92 1 12 C0.34 12 -0.32 12 -1 12 C-1.66 10.35 -2.32 8.7 -3 7 C-2.01 7 -1.02 7 0 7 C0 4.69 0 2.38 0 0 Z " fill="#50CCD8" transform="translate(673,386)"/>
<path d="M0 0 C1.65 0 3.3 0 5 0 C5 2.64 5 5.28 5 8 C4.67 8 4.34 8 4 8 C4 6.35 4 4.7 4 3 C2.68 3 1.36 3 0 3 C0 2.01 0 1.02 0 0 Z " fill="#59C0D0" transform="translate(672,414)"/>
<path d="M0 0 C4.62 0 9.24 0 14 0 C14 0.33 14 0.66 14 1 C12.75283203 1.09087891 12.75283203 1.09087891 11.48046875 1.18359375 C9.85044922 1.30927734 9.85044922 1.30927734 8.1875 1.4375 C7.10855469 1.51871094 6.02960938 1.59992187 4.91796875 1.68359375 C1.94010095 1.90212461 1.94010095 1.90212461 -1 3 C-0.67 2.01 -0.34 1.02 0 0 Z " fill="#C5C7D1" transform="translate(254,712)"/>
</svg>
