<?xml version="1.0" encoding="UTF-8"?>
<svg version="1.1" xmlns="http://www.w3.org/2000/svg" width="1080" height="1080">
<path d="M0 0 C356.4 0 712.8 0 1080 0 C1080 356.4 1080 712.8 1080 1080 C723.6 1080 367.2 1080 0 1080 C0 723.6 0 367.2 0 0 Z " fill="#FEFEFE" transform="translate(0,0)"/>
<path d="M0 0 C199.98 0 399.96 0 606 0 C606 5.28 606 10.56 606 16 C611.28 16 616.56 16 622 16 C622 21.28 622 26.56 622 32 C627.28 32 632.56 32 638 32 C638 37.28 638 42.56 638 48 C643.61 48 649.22 48 655 48 C655 248.31 655 448.62 655 655 C454.69 655 254.38 655 48 655 C48 649.39 48 643.78 48 638 C42.72 638 37.44 638 32 638 C32 633.05 32 628.1 32 623 C26.72 623 21.44 623 16 623 C16 617.72 16 612.44 16 607 C10.72 607 5.44 607 0 607 C0 406.69 0 206.38 0 0 Z " fill="#0D1626" transform="translate(237,237)"/>
<path d="M0 0 C199.98 0 399.96 0 606 0 C606 5.28 606 10.56 606 16 C411.3 16 216.6 16 16 16 C16 210.7 16 405.4 16 606 C10.72 606 5.44 606 0 606 C0 406.02 0 206.04 0 0 Z " fill="#021545" transform="translate(269,269)"/>
<path d="M0 0 C5.0428125 -0.0928125 5.0428125 -0.0928125 10.1875 -0.1875 C11.76374146 -0.22846802 11.76374146 -0.22846802 13.37182617 -0.27026367 C22.08459005 -0.34795924 22.08459005 -0.34795924 26 3 C27.53214888 6.06429776 27.22938548 8.6165642 27 12 C25.5 14.9375 25.5 14.9375 24 17 C24.639375 17.309375 25.27875 17.61875 25.9375 17.9375 C28 19 28 19 29 20 C29.39654771 24.12409614 29.42561229 26.32489085 27.1875 29.875 C23.91049619 33.05837513 21.27020435 33.12294916 16.89453125 33.09765625 C16.00870361 33.09515869 15.12287598 33.09266113 14.21020508 33.09008789 C13.0889624 33.08098389 11.96771973 33.07187988 10.8125 33.0625 C7.244375 33.041875 3.67625 33.02125 0 33 C0 22.11 0 11.22 0 0 Z " fill="#F3F3F3" transform="translate(663,609)"/>
<path d="M0 0 C1.64935547 0.01353516 1.64935547 0.01353516 3.33203125 0.02734375 C6.01325758 0.05065876 8.69400607 0.0833796 11.375 0.125 C11.375 1.115 11.375 2.105 11.375 3.125 C7.415 4.775 3.455 6.425 -0.625 8.125 C-0.625 8.785 -0.625 9.445 -0.625 10.125 C1.33427063 11.8393618 3.33380212 13.50905168 5.375 15.125 C6.62216797 14.58359375 6.62216797 14.58359375 7.89453125 14.03125 C8.98121094 13.5671875 10.06789063 13.103125 11.1875 12.625 C12.26644531 12.1609375 13.34539063 11.696875 14.45703125 11.21875 C17.375 10.125 17.375 10.125 20.375 10.125 C20.9375 13.1875 20.9375 13.1875 20.375 17.125 C17.65017826 19.87637946 14.61118944 22.01248745 11.375 24.125 C12.75471971 27.40706053 14.113142 28.69758759 17 30.6875 C20.0475627 33.52684413 20.61599137 35.78084662 20.83203125 39.8046875 C20.88867009 44.59066908 20.67556952 49.34928434 20.375 54.125 C12.38154304 50.18895937 12.38154304 50.18895937 10.375 47.125 C10.05078125 44.15234375 10.05078125 44.15234375 10 40.75 C9.91295225 35.90436599 9.91295225 35.90436599 7.62109375 31.79296875 C5.60930672 30.08348961 3.57167087 28.58495507 1.375 27.125 C-0.625 25.125 -0.625 25.125 -1.5 22.3125 C-2.77798978 18.69152895 -3.85135735 16.79230492 -6.625 14.125 C-9.55708267 13.59216168 -11.94481221 13.33579655 -14.875 13.3125 C-15.62007812 13.28736328 -16.36515625 13.26222656 -17.1328125 13.23632812 C-18.96297793 13.17766898 -20.79404453 13.1484192 -22.625 13.125 C-22.625 9.495 -22.625 5.865 -22.625 2.125 C-14.94761693 0.31604332 -7.87037081 -0.12431934 0 0 Z " fill="#15C0E3" transform="translate(562.625,508.875)"/>
<path d="M0 0 C3.79159964 -0.05886171 7.58307919 -0.09388224 11.375 -0.125 C12.96634766 -0.15013672 12.96634766 -0.15013672 14.58984375 -0.17578125 C21.35937178 -0.2173121 27.40773848 0.44672131 34 2 C34 5.63 34 9.26 34 13 C32.35451172 13.02126953 32.35451172 13.02126953 30.67578125 13.04296875 C29.22131302 13.08988708 27.76688723 13.13813438 26.3125 13.1875 C25.59126953 13.19330078 24.87003906 13.19910156 24.12695312 13.20507812 C20.01284066 13.37415124 18.37867374 13.7015453 15.03125 16.33984375 C12.77943618 18.9175024 12.77943618 18.9175024 12.1875 22.375 C10.5317883 27.42927782 7.28977634 29.99290926 3 33 C1.515 33.495 1.515 33.495 0 34 C0.08121094 34.85722656 0.16242187 35.71445312 0.24609375 36.59765625 C0.75304824 45.77456716 0.75304824 45.77456716 -1.48828125 49.421875 C-3.24771518 51.18495165 -4.88538362 52.68434501 -7 54 C-7.66 54 -8.32 54 -9 54 C-10.45740209 36.47518967 -10.45740209 36.47518967 -6.99609375 31.51171875 C-4.78088252 29.11623994 -2.58097718 26.99206374 0 25 C-2.50335194 22.35359937 -4.51779917 20.23574263 -7.8125 18.625 C-8.534375 18.08875 -9.25625 17.5525 -10 17 C-10.3125 13.3125 -10.3125 13.3125 -10 10 C-5.10447817 10.5021048 -1.44653311 12.10085369 2.8515625 14.35546875 C5.01691228 15.23899985 5.01691228 15.23899985 7.1640625 14.20703125 C9.06622005 12.95646384 10.54202893 11.74956528 12 10 C12 9.34 12 8.68 12 8 C8.04 6.35 4.08 4.7 0 3 C0 2.01 0 1.02 0 0 Z " fill="#12C5E8" transform="translate(602,509)"/>
<path d="M0 0 C2.64 0 5.28 0 8 0 C13.59104507 10.78999087 18.52539738 21.70162838 23 33 C20.36 33 17.72 33 15 33 C14.67386719 32.02804687 14.34773437 31.05609375 14.01171875 30.0546875 C12.24089692 26.58680702 12.24089692 26.58680702 8.20703125 26.1953125 C6.74295894 26.14231441 5.2775223 26.11988202 3.8125 26.125 C3.06291016 26.104375 2.31332031 26.08375 1.54101562 26.0625 C-0.30550787 26.01545482 -2.15288219 26.00425113 -4 26 C-4.66 28.31 -5.32 30.62 -6 33 C-8.64 33 -11.28 33 -14 33 C-11.69182884 25.50829089 -8.62777717 18.53433204 -5.3125 11.4375 C-4.80138672 10.33341797 -4.29027344 9.22933594 -3.76367188 8.09179688 C-2.5133598 5.39252502 -1.25872684 2.69535545 0 0 Z " fill="#EEEFEF" transform="translate(634,609)"/>
<path d="M0 0 C2.31 0 4.62 0 7 0 C7 4.29 7 8.58 7 13 C11.95 13 16.9 13 22 13 C22 8.71 22 4.42 22 0 C24.31 0 26.62 0 29 0 C29 10.89 29 21.78 29 33 C26.36 33 23.72 33 21 33 C21 28.71 21 24.42 21 20 C16.38 20 11.76 20 7 20 C7 24.29 7 28.58 7 33 C4.69 33 2.38 33 0 33 C0 22.11 0 11.22 0 0 Z " fill="#F1F1F2" transform="translate(555,609)"/>
<path d="M0 0 C8.25 0 16.5 0 25 0 C25 1.98 25 3.96 25 6 C19.06 6 13.12 6 7 6 C7 8.31 7 10.62 7 13 C11.95 13 16.9 13 22 13 C22 14.98 22 16.96 22 19 C17.05 19 12.1 19 7 19 C7 21.64 7 24.28 7 27 C12.94 27 18.88 27 25 27 C25 28.98 25 30.96 25 33 C16.75 33 8.5 33 0 33 C0 22.11 0 11.22 0 0 Z " fill="#F4F5F5" transform="translate(485,609)"/>
<path d="M0 0 C1.65018367 0.70770072 3.26026194 1.50765038 4.859375 2.32421875 C4.484375 4.76171875 4.484375 4.76171875 3.859375 7.32421875 C2.869375 7.81921875 2.869375 7.81921875 1.859375 8.32421875 C0.869375 7.99421875 -0.120625 7.66421875 -1.140625 7.32421875 C-2.70180928 7.2568101 -4.2656502 7.23907419 -5.828125 7.26171875 C-6.63636719 7.27074219 -7.44460938 7.27976562 -8.27734375 7.2890625 C-8.89222656 7.30066406 -9.50710938 7.31226563 -10.140625 7.32421875 C-10.140625 8.64421875 -10.140625 9.96421875 -10.140625 11.32421875 C-9.16480469 11.65035156 -8.18898438 11.97648438 -7.18359375 12.3125 C-5.89827989 12.75344709 -4.61313222 13.19487883 -3.328125 13.63671875 C-2.68552734 13.85005859 -2.04292969 14.06339844 -1.38085938 14.28320312 C4.85754857 16.44886806 4.85754857 16.44886806 6.859375 19.32421875 C7.4128066 24.30510318 6.93317296 27.33966583 3.859375 31.32421875 C0.10653415 33.82611265 -2.03869457 33.62352544 -6.515625 33.63671875 C-7.82273437 33.65347656 -9.12984375 33.67023437 -10.4765625 33.6875 C-14.24275281 33.31409307 -16.12289716 32.5321702 -19.140625 30.32421875 C-18.480625 28.34421875 -17.820625 26.36421875 -17.140625 24.32421875 C-16.33625 24.65421875 -15.531875 24.98421875 -14.703125 25.32421875 C-10.40257705 26.5313901 -6.57096319 26.50143228 -2.140625 26.32421875 C-2.140625 25.00421875 -2.140625 23.68421875 -2.140625 22.32421875 C-2.96046875 22.081875 -3.7803125 21.83953125 -4.625 21.58984375 C-6.24148438 21.08710937 -6.24148438 21.08710937 -7.890625 20.57421875 C-9.49164062 20.08695313 -9.49164062 20.08695313 -11.125 19.58984375 C-14.94495881 17.9866486 -17.28140465 16.04265945 -19.140625 12.32421875 C-19.55969239 8.55261224 -19.45263324 6.81451741 -17.390625 3.57421875 C-12.50111371 -1.31529254 -6.54185975 -2.06522215 0 0 Z " fill="#ECECED" transform="translate(717.140625,608.67578125)"/>
<path d="M0 0 C2.93394345 1.3537649 5.45866888 3.01236673 8 5 C7.1875 6.9375 7.1875 6.9375 6 9 C5.01 9.33 4.02 9.66 3 10 C2.443125 9.690625 1.88625 9.38125 1.3125 9.0625 C-2.10709659 7.491334 -5.35076015 7.31350934 -9 8 C-12.16666667 9.83333333 -12.16666667 9.83333333 -14 13 C-14.67766102 16.6023033 -14.35854247 19.8646155 -13.25 23.375 C-11.61838996 25.49609306 -10.56064812 26.16951953 -8 27 C-2.66175195 27.38736197 -2.66175195 27.38736197 2 25 C4.0625 25.125 4.0625 25.125 6 26 C7.25 28.0625 7.25 28.0625 8 30 C1.84551952 34.88113969 -4.377626 34.64851271 -12 34 C-17.47019636 31.65563013 -20.74320736 27.43550909 -23 22 C-23.9221119 17.33331193 -23.51673726 13.41529933 -21.3125 9.1875 C-15.75708879 1.5300413 -9.31570598 -1.43211599 0 0 Z " fill="#EEEFEF" transform="translate(539,608)"/>
<path d="M0 0 C8.91 0 17.82 0 27 0 C27 1.98 27 3.96 27 6 C23.7 6 20.4 6 17 6 C17 14.91 17 23.82 17 33 C14.69 33 12.38 33 10 33 C10 24.09 10 15.18 10 6 C6.7 6 3.4 6 0 6 C0 4.02 0 2.04 0 0 Z " fill="#F8F9F9" transform="translate(451,609)"/>
<path d="M0 0 C2.31 0 4.62 0 7 0 C7 8.91 7 17.82 7 27 C12.61 27 18.22 27 24 27 C24 28.98 24 30.96 24 33 C16.08 33 8.16 33 0 33 C0 22.11 0 11.22 0 0 Z " fill="#F5F5F6" transform="translate(594,609)"/>
<path d="M0 0 C1.93166016 0.01740234 1.93166016 0.01740234 3.90234375 0.03515625 C5.19269531 0.04417969 6.48304688 0.05320312 7.8125 0.0625 C8.81152344 0.07410156 9.81054688 0.08570313 10.83984375 0.09765625 C11.49984375 3.72765625 12.15984375 7.35765625 12.83984375 11.09765625 C11.18984375 11.09765625 9.53984375 11.09765625 7.83984375 11.09765625 C7.83984375 14.39765625 7.83984375 17.69765625 7.83984375 21.09765625 C4.86984375 21.09765625 1.89984375 21.09765625 -1.16015625 21.09765625 C-1.16015625 17.79765625 -1.16015625 14.49765625 -1.16015625 11.09765625 C-2.48015625 11.09765625 -3.80015625 11.09765625 -5.16015625 11.09765625 C-5.01972748 9.45135297 -4.87266296 7.80561446 -4.72265625 6.16015625 C-4.64144531 5.24363281 -4.56023438 4.32710937 -4.4765625 3.3828125 C-3.985646 -0.16269559 -3.70665868 0.11454446 0 0 Z " fill="#16BEE0" transform="translate(584.16015625,571.90234375)"/>
<path d="M0 0 C2.86516868 1.28438596 5.13371563 2.43241001 7 5 C7.1953125 7.63671875 7.1953125 7.63671875 7.125 10.6875 C7.3470527 15.43965037 7.3470527 15.43965037 10.05859375 19.1796875 C11.71475058 20.42503476 13.37228253 21.6685556 15.03125 22.91015625 C17.61418114 25.65195815 17.60033812 27.28713479 17.5625 31 C17.41946008 32.6710696 17.24700415 34.34110791 17 36 C14.82421875 35.9609375 14.82421875 35.9609375 12 35 C9.94290326 32.7515986 8.40405454 30.21579074 6.8125 27.625 C6.37486328 26.93921875 5.93722656 26.2534375 5.48632812 25.546875 C4.67247026 24.26955303 3.86485599 22.98821522 3.06567383 21.70166016 C2.07264317 20.11599608 1.03781434 18.55672151 0 17 C-0.22705078 15.09887695 -0.22705078 15.09887695 -0.1953125 12.98828125 C-0.18886719 12.23095703 -0.18242188 11.47363281 -0.17578125 10.69335938 C-0.15902344 9.90767578 -0.14226563 9.12199219 -0.125 8.3125 C-0.11597656 7.51521484 -0.10695313 6.71792969 -0.09765625 5.89648438 C-0.07411585 3.930861 -0.03824547 1.96539225 0 0 Z " fill="#19C0E3" transform="translate(557,540)"/>
<path d="M0 0 C1.17662314 10.79878574 0.71715666 17.85647245 -6.17919922 26.53173828 C-7.43174893 28.03890466 -8.71483714 29.5205448 -10 31 C-10.51949219 31.78761719 -11.03898438 32.57523438 -11.57421875 33.38671875 C-12.04472656 33.91910156 -12.51523437 34.45148437 -13 35 C-14.32 35 -15.64 35 -17 35 C-17.49213233 31.22015029 -17.68195865 27.76340144 -17 24 C-14.7196654 21.05648084 -12.074148 19.06676335 -9 17 C-7.31792448 15.31792448 -7.83621409 13.05314773 -7.75 10.75 C-7.45280328 7.0033725 -7.25477656 4.53635752 -4.5625 1.8125 C-2 0 -2 0 0 0 Z " fill="#1AC3E6" transform="translate(618,541)"/>
<path d="M0 0 C9.625 -0.25 9.625 -0.25 13 2 C13.1875 5.625 13.1875 5.625 13 9 C12.01 9.33 11.02 9.66 10 10 C10.99 11.98 11.98 13.96 13 16 C12.01 16 11.02 16 10 16 C9.319375 15.0409375 9.319375 15.0409375 8.625 14.0625 C7.1337227 11.75235447 7.1337227 11.75235447 4.3125 11.25 C3.549375 11.1675 2.78625 11.085 2 11 C2 12.65 2 14.3 2 16 C1.34 16 0.68 16 0 16 C0 10.72 0 5.44 0 0 Z " fill="#2EA8C7" transform="translate(571,653)"/>
<path d="M0 0 C1.32 0 2.64 0 4 0 C5.17133058 2.45620851 6.33721722 4.91474917 7.5 7.375 C7.83386719 8.07367187 8.16773438 8.77234375 8.51171875 9.4921875 C11 14.7734375 11 14.7734375 11 17 C10.01 17 9.02 17 8 17 C7.64808594 16.03320312 7.64808594 16.03320312 7.2890625 15.046875 C6.18838927 12.7922092 6.18838927 12.7922092 3.8359375 12.390625 C2.61777344 12.32101562 2.61777344 12.32101562 1.375 12.25 C0.14910156 12.16492188 0.14910156 12.16492188 -1.1015625 12.078125 C-1.72804688 12.05234375 -2.35453125 12.0265625 -3 12 C-3.33 13.65 -3.66 15.3 -4 17 C-4.99 17 -5.98 17 -7 17 C-5.24009216 11.08030998 -2.60305395 5.58365008 0 0 Z " fill="#279FC1" transform="translate(514,653)"/>
<path d="M0 0 C1.95803507 -0.05389087 3.91648909 -0.09274217 5.875 -0.125 C7.51082031 -0.15980469 7.51082031 -0.15980469 9.1796875 -0.1953125 C12 0 12 0 14 2 C14.125 4.625 14.125 4.625 14 7 C11.23547967 8.38226016 8.9538637 8.09525387 5.875 8.0625 C4.77929688 8.05347656 3.68359375 8.04445313 2.5546875 8.03515625 C1.29011719 8.01775391 1.29011719 8.01775391 0 8 C0 5.36 0 2.72 0 0 Z " fill="#171F2E" transform="translate(670,628)"/>
<path d="M0 0 C0.66 0.33 1.32 0.66 2 1 C2 1.99 2 2.98 2 4 C1.37351562 3.90460937 0.74703125 3.80921875 0.1015625 3.7109375 C-0.71570313 3.60007812 -1.53296875 3.48921875 -2.375 3.375 C-3.59316406 3.20097656 -3.59316406 3.20097656 -4.8359375 3.0234375 C-5.55007813 3.01570312 -6.26421875 3.00796875 -7 3 C-9.32483785 4.88375675 -9.32483785 4.88375675 -9.1875 8 C-9.20079609 10.92386603 -9.20079609 10.92386603 -8 13 C-4.7 13 -1.4 13 2 13 C2 13.66 2 14.32 2 15 C-0.70367569 16.83849947 -2.16625394 16.99703118 -5.5 16.9375 C-9 16 -9 16 -11.5 13.875 C-13.49546009 10.05036816 -13.19379979 8.10368679 -12 4 C-8.82273152 -0.95653883 -5.40540706 -0.43591992 0 0 Z " fill="#2AA7CA" transform="translate(635,653)"/>
<path d="M0 0 C4.29 0 8.58 0 13 0 C13 0.66 13 1.32 13 2 C9.7 2 6.4 2 3 2 C3 3.98 3 5.96 3 8 C5.64 8 8.28 8 11 8 C11 8.66 11 9.32 11 10 C8.36 10 5.72 10 3 10 C3 12.31 3 14.62 3 17 C2.01 17 1.02 17 0 17 C0 11.39 0 5.78 0 0 Z " fill="#28A3C2" transform="translate(541,653)"/>
<path d="M0 0 C1.79133978 -0.05391993 3.58313899 -0.09275571 5.375 -0.125 C6.37273438 -0.14820313 7.37046875 -0.17140625 8.3984375 -0.1953125 C11 0 11 0 13 2 C12.67 3.65 12.34 5.3 12 7 C8.04 7 4.08 7 0 7 C0 4.69 0 2.38 0 0 Z " fill="#141D2B" transform="translate(670,615)"/>
<path d="M0 0 C0.99 0 1.98 0 3 0 C2.67 1.32 2.34 2.64 2 4 C1.34 3.67 0.68 3.34 0 3 C-0.144375 3.763125 -0.28875 4.52625 -0.4375 5.3125 C-1 8 -1 8 -2 11 C0.31 11 2.62 11 5 11 C5.33 10.01 5.66 9.02 6 8 C8.50298434 10.93828597 9.46930939 13.17902761 10 17 C9.01 16.67 8.02 16.34 7 16 C6.67 15.34 6.34 14.68 6 14 C3.64400765 13.53248212 3.64400765 13.53248212 0.9375 13.375 C0.01839844 13.30023437 -0.90070312 13.22546875 -1.84765625 13.1484375 C-2.55792969 13.09945312 -3.26820313 13.05046875 -4 13 C-4.33 13.99 -4.66 14.98 -5 16 C-5.66 16 -6.32 16 -7 16 C-5.60668753 10.04675579 -3.11464243 5.24258516 0 0 Z " fill="#2CAFCF" transform="translate(660,653)"/>
<path d="M0 0 C3.28670403 3.28670403 5 7.35868331 5 12 C1.7 12 -1.6 12 -5 12 C-4.35758106 10.186287 -3.71096881 8.37405876 -3.0625 6.5625 C-2.70285156 5.55316406 -2.34320312 4.54382813 -1.97265625 3.50390625 C-1 1 -1 1 0 0 Z " fill="#242D39" transform="translate(638,617)"/>
<path d="M0 0 C7.92 0 15.84 0 24 0 C24 0.33 24 0.66 24 1 C19.38 1.33 14.76 1.66 10 2 C9.67 2.99 9.34 3.98 9 5 C9.99 5.33 10.98 5.66 12 6 C10 7 10 7 7.6171875 6.22265625 C6.71226562 5.83980469 5.80734375 5.45695313 4.875 5.0625 C3.96492187 4.68222656 3.05484375 4.30195312 2.1171875 3.91015625 C1.41851563 3.60980469 0.71984375 3.30945313 0 3 C0 2.01 0 1.02 0 0 Z " fill="#1FBAD9" transform="translate(602,509)"/>
<path d="M0 0 C3.375 -0.125 3.375 -0.125 7 0 C9 2 9 2 9 6 C6.04335481 7.4783226 3.25770263 7.06032783 0 7 C0 4.69 0 2.38 0 0 Z " fill="#0D1A2C" transform="translate(573,655)"/>
<path d="M0 0 C5.75 0.875 5.75 0.875 8 2 C7.67 4.97 7.34 7.94 7 11 C3.535 9.02 3.535 9.02 0 7 C0 4.69 0 2.38 0 0 Z " fill="#1DBCDB" transform="translate(592,519)"/>
<path d="M0 0 C5.14770554 2.49940249 5.14770554 2.49940249 7 5 C7.1875 7.6875 7.1875 7.6875 7 10 C6.34 8.68 5.68 7.36 5 6 C4.34 6 3.68 6 3 6 C3 10.62 3 15.24 3 20 C0 17 0 17 -0.34057617 15.09887695 C-0.32486572 14.40238037 -0.30915527 13.70588379 -0.29296875 12.98828125 C-0.28330078 12.23095703 -0.27363281 11.47363281 -0.26367188 10.69335938 C-0.23853516 9.90767578 -0.21339844 9.12199219 -0.1875 8.3125 C-0.17396484 7.51521484 -0.16042969 6.71792969 -0.14648438 5.89648438 C-0.11117089 3.93070033 -0.05736447 1.96526418 0 0 Z " fill="#20A5C5" transform="translate(557,540)"/>
<path d="M0 0 C0.99 0 1.98 0 3 0 C3 5.61 3 11.22 3 17 C2.01 17 1.02 17 0 17 C0 11.39 0 5.78 0 0 Z " fill="#2C9ABB" transform="translate(602,653)"/>
<path d="M0 0 C0.99 0.33 1.98 0.66 3 1 C3.08086147 2.79093191 3.13912702 4.58289628 3.1875 6.375 C3.22230469 7.37273438 3.25710938 8.37046875 3.29296875 9.3984375 C3.19628906 10.25695312 3.09960938 11.11546875 3 12 C2.01 12.66 1.02 13.32 0 14 C-1 13 -1 13 -1.1328125 10.3125 C-1.13023437 9.219375 -1.12765625 8.12625 -1.125 7 C-1.12757813 5.906875 -1.13015625 4.81375 -1.1328125 3.6875 C-1 1 -1 1 0 0 Z " fill="#12C8EC" transform="translate(560,545)"/>
<path d="M0 0 C1.5625 1.6875 1.5625 1.6875 3 4 C2.6875 6.75 2.6875 6.75 2 9 C-0.31 9 -2.62 9 -5 9 C-4.47731534 6.23723823 -3.89130413 3.6739124 -3 1 C-2.01 0.67 -1.02 0.34 0 0 Z " fill="#2387A3" transform="translate(663,655)"/>
<path d="M0 0 C0.33 0 0.66 0 1 0 C1.66 2.31 2.32 4.62 3 7 C6.3 7 9.6 7 13 7 C13 7.66 13 8.32 13 9 C10.22578757 10.88646445 8.86760546 10.99303187 5.4375 10.8125 C2 10 2 10 0 8.875 C-1.61226473 5.85200363 -0.67268829 3.2411345 0 0 Z " fill="#2897B9" transform="translate(624,659)"/>
<path d="M0 0 C7.92 0 15.84 0 24 0 C24 0.99 24 1.98 24 3 C22.68 3.33 21.36 3.66 20 4 C20 3.01 20 2.02 20 1 C13.4 1 6.8 1 0 1 C0 0.67 0 0.34 0 0 Z " fill="#1EBEDF" transform="translate(550,509)"/>
<path d="M0 0 C0.66 0 1.32 0 2 0 C3.33257403 10.55808656 3.33257403 10.55808656 2 15 C1.34 15 0.68 15 0 15 C0 10.05 0 5.1 0 0 Z " fill="#2BBADC" transform="translate(571,654)"/>
<path d="M0 0 C1.60379341 -0.05416188 3.20811406 -0.09286638 4.8125 -0.125 C5.70582031 -0.14820313 6.59914063 -0.17140625 7.51953125 -0.1953125 C10 0 10 0 13 2 C13.1875 4.625 13.1875 4.625 13 7 C12.2884375 6.071875 12.2884375 6.071875 11.5625 5.125 C8.02195453 2.1889379 4.46172044 1.72455289 0 1 C0 0.67 0 0.34 0 0 Z " fill="#30AFD0" transform="translate(571,653)"/>
<path d="M0 0 C0.33 0.66 0.66 1.32 1 2 C0.0625 4.625 0.0625 4.625 -1 7 C-1.66 7 -2.32 7 -3 7 C-3 7.66 -3 8.32 -3 9 C-4.98 9.66 -6.96 10.32 -9 11 C-8.06558465 9.72689688 -7.12732889 8.456612 -6.1875 7.1875 C-5.66542969 6.47980469 -5.14335938 5.77210938 -4.60546875 5.04296875 C-3.16871123 3.21468607 -1.68184237 1.60103312 0 0 Z " fill="#1DB5D4" transform="translate(603,533)"/>
<path d="M0 0 C0.66 0 1.32 0 2 0 C2.66 2.31 3.32 4.62 4 7 C2.02 7 0.04 7 -2 7 C-1.34 4.69 -0.68 2.38 0 0 Z " fill="#0E3043" transform="translate(515,656)"/>
<path d="M0 0 C0.66 0 1.32 0 2 0 C2 2.97 2 5.94 2 9 C2.99 9.33 3.98 9.66 5 10 C3.35 10.33 1.7 10.66 0 11 C0 7.37 0 3.74 0 0 Z " fill="#2AADCF" transform="translate(601,565)"/>
<path d="M0 0 C1.80125336 2.70188004 3.00243753 4.93057703 4 8 C3.67 8.99 3.34 9.98 3 11 C0.36 11 -2.28 11 -5 11 C-4.67 10.34 -4.34 9.68 -4 9 C-1.03 9.495 -1.03 9.495 2 10 C1.505 9.195625 1.505 9.195625 1 8.375 C-0.22699204 5.4608939 -0.14233286 3.13132292 0 0 Z " fill="#2393B5" transform="translate(517,653)"/>
<path d="M0 0 C3.375 -0.125 3.375 -0.125 7 0 C7.66 0.66 8.32 1.32 9 2 C8.625 4.125 8.625 4.125 8 6 C7.67 5.01 7.34 4.02 7 3 C5.35 3 3.7 3 2 3 C1.34 4.32 0.68 5.64 0 7 C0 4.69 0 2.38 0 0 Z " fill="#0A3348" transform="translate(573,655)"/>
<path d="M0 0 C0.33 0 0.66 0 1 0 C1 5.28 1 10.56 1 16 C1.99 16.33 2.98 16.66 4 17 C2.02 17.99 2.02 17.99 0 19 C0 12.73 0 6.46 0 0 Z " fill="#2ABEDF" transform="translate(593,544)"/>
<path d="M0 0 C2.35953094 2.35953094 2.49141413 3.77895617 3 7 C2.01 6.67 1.02 6.34 0 6 C-0.33 5.34 -0.66 4.68 -1 4 C-3.12576782 3.53348793 -3.12576782 3.53348793 -5.5625 3.375 C-6.38878906 3.30023437 -7.21507812 3.22546875 -8.06640625 3.1484375 C-8.70449219 3.09945312 -9.34257813 3.05046875 -10 3 C-10 2.67 -10 2.34 -10 2 C-6.7 2 -3.4 2 0 2 C0 1.34 0 0.68 0 0 Z " fill="#25809B" transform="translate(667,663)"/>
<path d="M0 0 C0.66 0 1.32 0 2 0 C2.66 2.31 3.32 4.62 4 7 C2.35 7 0.7 7 -1 7 C-0.67 4.69 -0.34 2.38 0 0 Z " fill="#0C2E45" transform="translate(660,656)"/>
<path d="M0 0 C0.99 0 1.98 0 3 0 C3 0.99 3 1.98 3 3 C2.34 3 1.68 3 1 3 C0.34 4.98 -0.32 6.96 -1 9 C-1.66 9 -2.32 9 -3 9 C-2.01 6.03 -1.02 3.06 0 0 Z " fill="#2AA6CA" transform="translate(514,653)"/>
<path d="M0 0 C5.28 0 10.56 0 16 0 C16 0.33 16 0.66 16 1 C15.10796875 1.04898438 14.2159375 1.09796875 13.296875 1.1484375 C12.12640625 1.22320313 10.9559375 1.29796875 9.75 1.375 C8.00976562 1.47941406 8.00976562 1.47941406 6.234375 1.5859375 C3.29305666 1.96248308 1.50050989 2.4774123 -1 4 C-0.67 2.68 -0.34 1.36 0 0 Z " fill="#232A38" transform="translate(630,635)"/>
<path d="M0 0 C1.98 0 3.96 0 6 0 C5.67 1.32 5.34 2.64 5 4 C5.99 4.33 6.98 4.66 8 5 C7.01 5.495 7.01 5.495 6 6 C3.4375 4.75 3.4375 4.75 1 3 C0.67 2.01 0.34 1.02 0 0 Z " fill="#19BFDF" transform="translate(606,510)"/>
<path d="M0 0 C0 0.66 0 1.32 0 2 C-3.13498292 3.85776765 -5.37471432 4.20140476 -9 4 C-9 3.34 -9 2.68 -9 2 C-3.375 0 -3.375 0 0 0 Z " fill="#31A4C1" transform="translate(637,666)"/>
</svg>
